# xmcd
#
# Track frame offsets: 
#        150
#        11910
#        23045
#        38126
#        52765
#        73142
#        83225
#        96684
#        116209
#        129202
#        143626
#        156349
#
# Disc length: 2315 seconds
#
# Revision: 0
# Processed by: cddbd v1.5.2PL0 Copyright (c) Steve Scherf et al.
# Submitted via: ExactAudioCopy v0.95b3
#
DISCID=a209090c
DTITLE=Raybon, Marty - The Grass I Grew Up On
DYEAR=2006
DGENRE=Bluegrass
TTITLE0=Highway Headed South
TTITLE1=Alone With you
TTITLE2=I Can't Even Walk (Without You Holding My Hand)
TTITLE3=Shenandoah Saturday Night
TTITLE4=The Nerve
TTITLE5=That Home Above
TTITLE6=The Water's So Cold
TTITLE7=Dixie In My Eye
TTITLE8=Sit Down (And Pray)
TTITLE9=Standing Tall And Tough
TTITLE10=The Fuss
TTITLE11=Roustabout
EXTD=
EXTT0=
EXTT1=
EXTT2=
EXTT3=
EXTT4=
EXTT5=
EXTT6=
EXTT7=
EXTT8=
EXTT9=
EXTT10=
EXTT11=
PLAYORDER=
